<svg width="90" height="32" viewBox="0 0 90 32" fill="none" xmlns="http://www.w3.org/2000/svg">
<rect x="0.5" y="0.5" width="89" height="31" rx="3.5" fill="black"/>
<path d="M15.5559 7H7V15.5608H15.5559V7Z" fill="#F25022"/>
<path d="M25.0001 7H16.4442V15.5608H25.0001V7Z" fill="#7FBA00"/>
<path d="M15.5559 16.4395H7V25.0002H15.5559V16.4395Z" fill="#00A4EF"/>
<path d="M25.0002 16.4395H16.4443V25.0002H25.0002V16.4395Z" fill="#FFB900"/>
<path d="M33.9922 12.6133C33.7109 12.7721 33.4128 12.8919 33.0977 12.9727C32.7826 13.0534 32.4505 13.0938 32.1016 13.0938C31.2734 13.0938 30.6159 12.8477 30.1289 12.3555C29.6419 11.8633 29.3984 11.1693 29.3984 10.2734C29.3984 9.36979 29.668 8.64974 30.207 8.11328C30.7487 7.57422 31.4466 7.30469 32.3008 7.30469C32.6185 7.30469 32.9102 7.33724 33.1758 7.40234C33.444 7.46484 33.7148 7.5651 33.9883 7.70312L33.7031 8.27734C33.474 8.15755 33.2487 8.07161 33.0273 8.01953C32.806 7.96745 32.5625 7.94141 32.2969 7.94141C31.6693 7.94141 31.1536 8.14062 30.75 8.53906C30.349 8.9375 30.1484 9.5 30.1484 10.2266C30.1484 10.9635 30.3255 11.5208 30.6797 11.8984C31.0365 12.2734 31.5365 12.4609 32.1797 12.4609C32.3906 12.4609 32.5872 12.4401 32.7695 12.3984C32.9544 12.3568 33.1237 12.2943 33.2773 12.2109V10.6875H32.0586V10.0547H33.9922V12.6133ZM38.5859 11.1094H35.7031C35.7161 11.5625 35.8372 11.9115 36.0664 12.1562C36.2956 12.3984 36.6172 12.5195 37.0312 12.5195C37.2109 12.5195 37.3945 12.4922 37.582 12.4375C37.7721 12.3802 37.9622 12.2878 38.1523 12.1602L38.4688 12.6445C38.2318 12.8008 37.9935 12.9154 37.7539 12.9883C37.5143 13.0612 37.2513 13.0977 36.9648 13.0977C36.3451 13.0977 35.862 12.9141 35.5156 12.5469C35.1693 12.1771 34.9948 11.6615 34.9922 11C34.9896 10.3411 35.1641 9.8112 35.5156 9.41016C35.8698 9.00651 36.3281 8.80469 36.8906 8.80469C37.4271 8.80469 37.8438 8.97917 38.1406 9.32812C38.4375 9.67448 38.5859 10.1576 38.5859 10.7773V11.1094ZM37.8867 10.5625C37.8841 10.1849 37.793 9.89193 37.6133 9.68359C37.4362 9.47526 37.1914 9.37109 36.8789 9.37109C36.5716 9.37109 36.3112 9.47917 36.0977 9.69531C35.8867 9.90885 35.7578 10.1979 35.7109 10.5625H37.8867ZM41.6211 12.9492C41.5091 12.9961 41.3971 13.0299 41.2852 13.0508C41.1758 13.0742 41.0521 13.0859 40.9141 13.0859C40.5781 13.0859 40.3151 12.9896 40.125 12.7969C39.9375 12.6042 39.8438 12.319 39.8438 11.9414V9.48047H39.1445V8.90234H39.8438V7.96484L40.543 7.74219V8.90234H41.5664V9.48047H40.543V11.8672C40.543 12.099 40.5846 12.2656 40.668 12.3672C40.7513 12.4688 40.8763 12.5195 41.043 12.5195C41.1211 12.5195 41.1966 12.5104 41.2695 12.4922C41.3424 12.474 41.4049 12.4518 41.457 12.4258L41.6211 12.9492ZM45.0469 8.03516C44.9089 8.03516 44.7943 7.98958 44.7031 7.89844C44.612 7.80729 44.5664 7.69661 44.5664 7.56641C44.5664 7.43099 44.612 7.31901 44.7031 7.23047C44.7943 7.13932 44.9089 7.09375 45.0469 7.09375C45.1849 7.09375 45.2995 7.13932 45.3906 7.23047C45.4844 7.31901 45.5312 7.43099 45.5312 7.56641C45.5312 7.69661 45.4844 7.80729 45.3906 7.89844C45.2995 7.98958 45.1849 8.03516 45.0469 8.03516ZM45.3867 13H44.6914V8.90234H45.3867V13ZM48.793 12.9492C48.681 12.9961 48.569 13.0299 48.457 13.0508C48.3477 13.0742 48.224 13.0859 48.0859 13.0859C47.75 13.0859 47.487 12.9896 47.2969 12.7969C47.1094 12.6042 47.0156 12.319 47.0156 11.9414V9.48047H46.3164V8.90234H47.0156V7.96484L47.7148 7.74219V8.90234H48.7383V9.48047H47.7148V11.8672C47.7148 12.099 47.7565 12.2656 47.8398 12.3672C47.9232 12.4688 48.0482 12.5195 48.2148 12.5195C48.293 12.5195 48.3685 12.5104 48.4414 12.4922C48.5143 12.474 48.5768 12.4518 48.6289 12.4258L48.793 12.9492ZM53.8359 7.63281C53.763 7.60677 53.6966 7.58854 53.6367 7.57812C53.5768 7.56771 53.5143 7.5625 53.4492 7.5625C53.2331 7.5625 53.0716 7.61979 52.9648 7.73438C52.8607 7.84896 52.8086 8.01693 52.8086 8.23828V8.90234H53.75V9.48047H52.8086V13H52.1172V9.48047H51.4297V8.90234H52.1172V8.20312C52.1172 7.82031 52.2357 7.52083 52.4727 7.30469C52.7122 7.08854 53.0378 6.98047 53.4492 6.98047C53.5534 6.98047 53.6484 6.98828 53.7344 7.00391C53.8203 7.01953 53.9089 7.04167 54 7.07031L53.8359 7.63281ZM56.5859 9.49609C56.5339 9.48047 56.4857 9.46875 56.4414 9.46094C56.3971 9.45312 56.3438 9.44922 56.2812 9.44922C55.9505 9.44922 55.6901 9.58984 55.5 9.87109C55.3099 10.1497 55.2148 10.5026 55.2148 10.9297V13H54.5195V8.90234H55.2148V9.71484H55.2305C55.3242 9.42578 55.4661 9.20703 55.6562 9.05859C55.849 8.90755 56.0716 8.83203 56.3242 8.83203C56.4049 8.83203 56.474 8.83594 56.5312 8.84375C56.5911 8.85156 56.6458 8.86328 56.6953 8.87891L56.5859 9.49609ZM59.2031 13.0977C58.5911 13.0977 58.1029 12.9062 57.7383 12.5234C57.3763 12.138 57.1953 11.6276 57.1953 10.9922C57.1953 10.3073 57.3828 9.77214 57.7578 9.38672C58.1328 9.0013 58.6445 8.80729 59.293 8.80469C59.9076 8.80208 60.388 8.99089 60.7344 9.37109C61.0833 9.7487 61.2578 10.2682 61.2578 10.9297C61.2578 11.5885 61.0716 12.1146 60.6992 12.5078C60.3268 12.901 59.8281 13.0977 59.2031 13.0977ZM59.25 12.5195C59.6667 12.5195 59.9857 12.3841 60.207 12.1133C60.431 11.8398 60.543 11.4531 60.543 10.9531C60.543 10.4479 60.431 10.0599 60.207 9.78906C59.9831 9.51823 59.6641 9.38281 59.25 9.38281C58.8359 9.38281 58.5078 9.52474 58.2656 9.80859C58.026 10.0898 57.9062 10.4779 57.9062 10.9727C57.9062 11.4544 58.0273 11.8333 58.2695 12.1094C58.5117 12.3828 58.8385 12.5195 59.25 12.5195ZM68.207 13H67.5078V10.6445C67.5078 10.1992 67.4388 9.8776 67.3008 9.67969C67.1628 9.48177 66.9323 9.38281 66.6094 9.38281C66.3333 9.38281 66.099 9.50781 65.9062 9.75781C65.7161 10.0078 65.6211 10.3099 65.6211 10.6641V13H64.9258V10.5703C64.9258 10.1745 64.849 9.8776 64.6953 9.67969C64.5443 9.48177 64.3164 9.38281 64.0117 9.38281C63.7279 9.38281 63.4935 9.5013 63.3086 9.73828C63.1263 9.97526 63.0352 10.2852 63.0352 10.668V13H62.3398V8.90234H63.0352V9.55078H63.0508C63.1966 9.30339 63.3763 9.11719 63.5898 8.99219C63.8034 8.86719 64.0495 8.80469 64.3281 8.80469C64.6094 8.80469 64.8529 8.88151 65.0586 9.03516C65.2669 9.1888 65.4115 9.39323 65.4922 9.64844C65.6432 9.36719 65.832 9.15625 66.0586 9.01562C66.2878 8.875 66.5521 8.80469 66.8516 8.80469C67.3021 8.80469 67.6406 8.94401 67.8672 9.22266C68.0938 9.4987 68.207 9.91536 68.207 10.4727V13Z" fill="white"/>
<path d="M41.1489 16.6123C41.1489 16.3559 41.2412 16.1508 41.4259 15.9764C41.6105 15.8021 41.8258 15.72 42.0823 15.72C42.3489 15.72 42.5746 15.8123 42.7489 15.9867C42.9233 16.161 43.0156 16.3764 43.0156 16.6123C43.0156 16.8585 42.9233 17.0738 42.7387 17.238C42.5541 17.4123 42.3387 17.4944 42.072 17.4944C41.8053 17.4944 41.59 17.4123 41.4053 17.238C41.2412 17.0636 41.1489 16.8585 41.1489 16.6123ZM42.8412 25.0021H41.313V18.4892H42.8412V25.0021Z" fill="white"/>
<path d="M47.4975 23.8887C47.7231 23.8887 47.9795 23.8374 48.2565 23.7349C48.5334 23.6323 48.7795 23.4887 49.0154 23.3144V24.74C48.7693 24.8836 48.4924 24.9862 48.1847 25.0579C47.877 25.1297 47.5282 25.1708 47.159 25.1708C46.2052 25.1708 45.4257 24.8631 44.8205 24.2579C44.2154 23.6528 43.918 22.8733 43.918 21.94C43.918 20.8938 44.2257 20.0323 44.8411 19.3554C45.4564 18.6785 46.318 18.34 47.4462 18.34C47.7334 18.34 48.0206 18.381 48.318 18.4528C48.6154 18.5246 48.8411 18.6169 49.0154 18.7092V20.1759C48.7795 20.0015 48.5334 19.8682 48.2872 19.7759C48.0411 19.6836 47.7847 19.6323 47.5282 19.6323C46.9231 19.6323 46.4411 19.8272 46.0616 20.2169C45.6923 20.6067 45.5077 21.14 45.5077 21.8067C45.5077 22.4631 45.6821 22.9759 46.0411 23.3451C46.4 23.7144 46.8821 23.8887 47.4975 23.8887Z" fill="white"/>
<path d="M53.3738 18.39C53.4969 18.39 53.6097 18.4003 53.702 18.4105C53.7943 18.431 53.8866 18.4516 53.9482 18.4721V20.0208C53.8661 19.9592 53.7533 19.908 53.5995 19.8567C53.4456 19.8054 53.261 19.7746 53.0354 19.7746C52.6559 19.7746 52.3379 19.9285 52.0815 20.2464C51.8251 20.5644 51.6918 21.0464 51.6918 21.7131V25.0054H50.1636V18.4926H51.6918V19.5182H51.7123C51.8559 19.1592 52.061 18.8823 52.3482 18.6874C52.6354 18.4926 52.9738 18.39 53.3738 18.39Z" fill="white"/>
<path d="M54.0308 21.8477C54.0308 20.7708 54.3385 19.9195 54.9436 19.2836C55.5487 18.6579 56.4 18.34 57.4769 18.34C58.4923 18.34 59.2923 18.6477 59.8667 19.2528C60.441 19.8579 60.7282 20.6785 60.7282 21.7041C60.7282 22.7605 60.4205 23.6015 59.8154 24.2272C59.2102 24.8528 58.3795 25.1605 57.3333 25.1605C56.3282 25.1605 55.5179 24.8631 54.9333 24.2682C54.3282 23.6836 54.0308 22.8733 54.0308 21.8477ZM55.6308 21.7964C55.6308 22.4733 55.7846 22.9964 56.0923 23.3554C56.4 23.7144 56.841 23.8887 57.4154 23.8887C57.9692 23.8887 58.4 23.7144 58.6872 23.3554C58.9743 22.9964 59.1282 22.4631 59.1282 21.7554C59.1282 21.0579 58.9743 20.5246 58.6769 20.1656C58.3795 19.8067 57.9487 19.6323 57.4051 19.6323C56.841 19.6323 56.4102 19.8169 56.0923 20.1964C55.7846 20.5759 55.6308 21.099 55.6308 21.7964Z" fill="white"/>
<path d="M63.0053 20.2069C63.0053 20.4223 63.0771 20.5967 63.2104 20.7198C63.354 20.8428 63.6617 20.9967 64.1335 21.1916C64.7489 21.4377 65.1796 21.7146 65.4258 22.0223C65.6719 22.33 65.795 22.6993 65.795 23.13C65.795 23.7454 65.5591 24.2377 65.0873 24.607C64.6155 24.9762 63.9796 25.1608 63.1796 25.1608C62.913 25.1608 62.6155 25.13 62.2873 25.0582C61.9591 24.9967 61.6822 24.9044 61.4565 24.8121V23.3044C61.7335 23.4993 62.0309 23.6531 62.3591 23.7659C62.6771 23.8787 62.9745 23.9403 63.2309 23.9403C63.5796 23.9403 63.836 23.889 64.0001 23.7967C64.1642 23.7044 64.2463 23.5403 64.2463 23.3044C64.2463 23.089 64.1642 22.9146 63.9899 22.7711C63.8155 22.6275 63.4976 22.4531 63.0155 22.2685C62.4514 22.0326 62.0514 21.7659 61.8155 21.4685C61.5796 21.171 61.4565 20.7916 61.4565 20.3403C61.4565 19.7557 61.6924 19.2736 62.154 18.8941C62.6155 18.5146 63.2206 18.33 63.9694 18.33C64.195 18.33 64.4514 18.3505 64.7386 18.4018C65.0258 18.4531 65.2617 18.5146 65.4463 18.5967V20.0531C65.2412 19.9198 65.0053 19.8069 64.7386 19.7044C64.4719 19.6121 64.195 19.5608 63.9386 19.5608C63.6514 19.5608 63.4155 19.6223 63.2617 19.7351C63.0873 19.848 63.0053 20.0121 63.0053 20.2069Z" fill="white"/>
<path d="M66.4717 21.8477C66.4717 20.7708 66.7794 19.9195 67.3845 19.2836C67.9896 18.6579 68.8409 18.34 69.9178 18.34C70.9332 18.34 71.7332 18.6477 72.3076 19.2528C72.8819 19.8579 73.1691 20.6785 73.1691 21.7041C73.1691 22.7605 72.8614 23.6015 72.2563 24.2272C71.6512 24.8528 70.8204 25.1605 69.7742 25.1605C68.7691 25.1605 67.9589 24.8631 67.3742 24.2682C66.7691 23.6836 66.4717 22.8733 66.4717 21.8477ZM68.0614 21.7964C68.0614 22.4733 68.2153 22.9964 68.523 23.3554C68.8307 23.7144 69.2717 23.8887 69.846 23.8887C70.3999 23.8887 70.8307 23.7144 71.1178 23.3554C71.405 22.9964 71.5589 22.4631 71.5589 21.7554C71.5589 21.0579 71.405 20.5246 71.1076 20.1656C70.8101 19.8067 70.3794 19.6323 69.8358 19.6323C69.2717 19.6323 68.8409 19.8169 68.523 20.1964C68.2153 20.5759 68.0614 21.099 68.0614 21.7964Z" fill="white"/>
<path d="M78.2258 19.7523V23.0959C78.2258 23.7933 78.3899 24.3062 78.7079 24.6549C79.0258 25.0036 79.5181 25.1677 80.1643 25.1677C80.3797 25.1677 80.6053 25.1472 80.8309 25.0959C81.0566 25.0446 81.2207 25.0036 81.313 24.9421V23.6703C81.2207 23.7318 81.1079 23.7831 80.9848 23.8241C80.8617 23.8651 80.7489 23.8857 80.6668 23.8857C80.3591 23.8857 80.1232 23.8036 79.9797 23.6395C79.8361 23.4754 79.7643 23.1882 79.7643 22.7882V19.7421H81.3232V18.4908H79.7745V16.5626L78.2361 17.0344V18.501H75.9489V17.7113C75.9489 17.3215 76.0309 17.0241 76.2053 16.819C76.3796 16.6139 76.6258 16.5215 76.9438 16.5215C77.1079 16.5215 77.2514 16.5421 77.3848 16.5831C77.5079 16.6241 77.6002 16.6651 77.6514 16.6959V15.3728C77.5386 15.3318 77.4155 15.3113 77.272 15.2908C77.1284 15.2703 76.9643 15.26 76.7797 15.26C76.0822 15.26 75.5079 15.4754 75.0668 15.9164C74.6258 16.3574 74.4002 16.9113 74.4002 17.5985V18.501H73.313V19.7523H74.4002V25.0139H75.9489V19.7523H78.2258V19.7523Z" fill="white"/>
<path d="M39.8359 15.92V25.0072H38.2564V17.8892H38.2359L35.4154 25.0072H34.3692L31.4769 17.8892H31.4564V25.0072H30V15.92H32.2564L34.8718 22.6585H34.9128L37.6718 15.92H39.8359Z" fill="white"/>
<rect x="0.5" y="0.5" width="89" height="31" rx="3.5" stroke="black"/>
</svg>
